<?xml version="1.0" encoding="utf-8"?>
<!-- Generator: Adobe Illustrator 22.0.0, SVG Export Plug-In . SVG Version: 6.00 Build 0)  -->
<svg version="1.1" id="图层_1" xmlns="http://www.w3.org/2000/svg" xmlns:xlink="http://www.w3.org/1999/xlink" x="0px" y="0px"
	 viewBox="0 0 541 159" style="enable-background:new 0 0 541 159;" xml:space="preserve">
<style type="text/css">
	.st0{opacity:0.7;fill:#AFDDEF;stroke:#37474F;stroke-width:6;stroke-miterlimit:10;enable-background:new    ;}
	.st1{opacity:0.7;fill:#96C4D6;stroke:#37474F;stroke-width:6;stroke-miterlimit:10;enable-background:new    ;}
	.st2{opacity:0.7;fill:#8CB4C4;stroke:#37474F;stroke-width:6;stroke-miterlimit:10;enable-background:new    ;}
	.st3{opacity:0.9;fill:#FFFFFF;stroke:#37474F;stroke-width:6;stroke-miterlimit:10;enable-background:new    ;}
	.st4{fill:#37474F;}
</style>
<path class="st0" d="M126.7,94.5h48.2c2.1,0,3.8-1.1,3.8-2.5V67c0-1.4-1.7-2.5-3.8-2.5h-48.2c-2.1,0-3.8,1.1-3.8,2.5v25
	C122.8,93.4,124.6,94.5,126.7,94.5z"/>
<path class="st1" d="M107,111h56.1c2.4,0,4.5-2.4,4.5-5.4V51.4c0-3-2-5.4-4.5-5.4H107c-2.5,0-4.5,2.4-4.5,5.4v54.2
	C102.5,108.6,104.5,111,107,111z"/>
<path class="st2" d="M147.5,128.5h-91c-2.5,0-4.5-2-4.5-4.5V33c0-2.5,2-4.5,4.5-4.5h90.9c2.5,0,4.5,2,4.5,4.5v91
	C152,126.5,150,128.5,147.5,128.5z"/>
<path class="st3" d="M125.7,141H26.3c-5.1,0-9.3-3.5-9.3-7.9V23.9c0-4.3,4.2-7.9,9.3-7.9h99.4c5.1,0,9.3,3.5,9.3,7.9v109.2
	C135.1,137.5,130.9,141,125.7,141z"/>
<g>
	<path class="st4" d="M258.1,83.8l-38.4,2.4c0.7,7.1,5.9,10.3,15.2,10.3c7.9,0,17-2.3,20.7-4.3v14.1c-3.7,2.4-13.1,4.6-24.4,4.6
		c-18.8,0-30.2-6.8-30.2-31.6s11.4-31.6,30.9-31.6c21.4,0,26.7,10.1,26.7,27.2C258.6,79,258.3,82.5,258.1,83.8z M241.9,71.6
		c0-5.6-1.7-10-9.9-10c-8.8,0-12,3-12.4,11.8L241.9,71.6z"/>
	<path class="st4" d="M262.9,79.2c0-24.8,11.3-31.6,30.4-31.6s30.4,6.8,30.4,31.6s-11.3,31.6-30.4,31.6S262.9,104,262.9,79.2z
		 M304.8,79.2c0-13.6-2.8-17.9-11.4-17.9c-8.7,0-11.4,4.3-11.4,17.9s2.8,17.7,11.4,17.7C302.1,96.9,304.8,92.9,304.8,79.2z"/>
	<path class="st4" d="M367.7,47.7l-0.5,16.7h-1.6c-7.6,0-14.9,2.7-16.2,12.2v33.1h-18.7V48.8h18.7v10.7c3.6-9.8,9.9-11.8,17-11.8
		C366.4,47.7,367.7,47.7,367.7,47.7z"/>
	<path class="st4" d="M371.6,48.8h18.7v60.9h-18.7V48.8z"/>
	<path class="st4" d="M396.8,79.2c0-24.8,11.3-31.6,30.4-31.6c19.2,0,30.4,6.8,30.4,31.6s-11.3,31.6-30.4,31.6S396.8,104,396.8,79.2
		z M438.6,79.2c0-13.6-2.8-17.9-11.4-17.9c-8.7,0-11.4,4.3-11.4,17.9s2.8,17.7,11.4,17.7C435.9,96.9,438.6,92.9,438.6,79.2z"/>
	<path class="st4" d="M522.3,68.3v41.4h-18.7V72.8c0-7.9-1.9-10.1-9.4-10.1c-6.4,0-9.7,2.4-11,7.1v39.9h-18.7V48.8h18.7v6.9
		c3.2-5.1,9.6-8,19.1-8C516.9,47.7,522.3,54.2,522.3,68.3z"/>
</g>
</svg>
