<?xml version="1.0" encoding="utf-8"?>
<!-- Generator: Adobe Illustrator 22.0.0, SVG Export Plug-In . SVG Version: 6.00 Build 0)  -->
<svg version="1.1" id="图层_1" xmlns="http://www.w3.org/2000/svg" xmlns:xlink="http://www.w3.org/1999/xlink" x="0px" y="0px"
	 viewBox="0 0 388 338" style="enable-background:new 0 0 388 338;" xml:space="preserve">
<style type="text/css">
	.st0{opacity:0.3;fill:#CFD8DC;stroke:#37474F;stroke-width:12;stroke-miterlimit:10;enable-background:new    ;}
	.st1{opacity:0.7;fill:#CFD8DC;stroke:#37474F;stroke-width:12;stroke-miterlimit:10;enable-background:new    ;}
	.st2{fill:#ECEFF1;stroke:#37474F;stroke-width:12;stroke-miterlimit:10;}
	.st3{fill:#FFFFFF;stroke:#37474F;stroke-width:12;stroke-miterlimit:10;}
	.st4{fill:#37474F;}
	.st5{fill:#7C7C7C;}
</style>
<path class="st0" d="M184,238h138c6,0,11-4.9,11-11V116c0-6.1-5-11-11-11H184c-6.1,0-11,4.9-11,11v111C173,233.1,177.9,238,184,238z
	"/>
<path class="st1" d="M298.6,275.3H109.8c-5.2,0-9.4-4.2-9.4-9.4V76.6c0-5.2,4.2-9.4,9.4-9.4h188.8c5.2,0,9.4,4.2,9.4,9.4v189.3
	C308,271.1,303.8,275.3,298.6,275.3z"/>
<path class="st2" d="M264.6,301.3H89.8c-9,0-16.4-7.3-16.4-16.4V57.6c0-9,7.3-16.4,16.4-16.4h174.8c9,0,16.4,7.3,16.4,16.4v227.3
	C281,293.9,273.7,301.3,264.6,301.3z"/>
<g>
	
		<image style="overflow:visible;opacity:0.6;enable-background:new    ;" width="200" height="158" xlink:href="BACFDF2F.png"  transform="matrix(1 0 0 1 41 94)">
	</image>
	<g>
		<path class="st3" d="M216.1,238H61.8c-6,0-10.8-4.9-10.8-10.9V115.7c0-6,4.9-10.8,10.8-10.8h154.3c6,0,10.9,4.9,10.9,10.8v111.5
			C227,233.1,222.1,238,216.1,238z"/>
	</g>
</g>
<g>
	<path class="st4" d="M140.3,182.9c0,17.3-4.3,30.5-22.9,30.5c-11.1,0-15.4-3.2-17.5-7.8l-1,6.8H79.7v-82.9h20.9v28.9
		c2.3-2.8,7.1-6,16.8-6C136,152.4,140.3,163.8,140.3,182.9z M119.2,182.9c0-9.6-1.3-15.7-9.8-15.7c-8.3,0-10.1,5.5-10.1,15.7
		c0,9.7,1.8,15.5,10.1,15.5C118.1,198.4,119.2,192,119.2,182.9z"/>
</g>
<rect x="253" y="105" class="st5" width="3" height="133"/>
</svg>
